<svg class="main-svg" xmlns="http://www.w3.org/2000/svg" xmlns:xlink="http://www.w3.org/1999/xlink" width="700" height="500" style="" viewBox="0 0 700 500"><rect x="0" y="0" width="700" height="500" style="fill: rgb(255, 255, 255); fill-opacity: 1;"/><defs id="defs-139b76"><g class="clips"><clipPath id="clip139b76xyplot" class="plotclip"><rect width="516" height="435"/></clipPath><clipPath class="axesclip" id="clip139b76x"><rect x="69" y="0" width="516" height="500"/></clipPath><clipPath class="axesclip" id="clip139b76y"><rect x="0" y="25" width="700" height="435"/></clipPath><clipPath class="axesclip" id="clip139b76xy"><rect x="69" y="25" width="516" height="435"/></clipPath></g><g class="gradients"/></defs><g class="bglayer"/><g class="layer-below"><g class="imagelayer"/><g class="shapelayer"/></g><g class="cartesianlayer"><g class="subplot xy"><g class="layer-subplot"><g class="shapelayer"/><g class="imagelayer"/></g><g class="gridlayer"><g class="x"/><g class="y"/></g><g class="zerolinelayer"><path class="yzl zl crisp" transform="translate(0,297.94)" d="M69,0h516" style="stroke: rgb(68, 68, 68); stroke-opacity: 1; stroke-width: 1px;"/></g><path class="xlines-below"/><path class="ylines-below"/><g class="overlines-below"/><g class="xaxislayer-below"/><g class="yaxislayer-below"/><g class="overaxes-below"/><g class="plot" transform="translate(69, 25)" clip-path="url('#clip139b76xyplot')"><g class="violinlayer mlayer"><g class="trace violins" style="opacity: 1;"><path class="violin" d="M87.16,361.98Q87.84,356.6 88.33,353.93C88.82,351.24 89.41,348.56 90.1,345.89C90.79,343.2 91.62,340.52 92.47,337.85C93.32,335.16 94.29,332.49 95.21,329.81C96.13,327.13 97.11,324.46 97.98,321.77C98.85,319.1 99.7,316.42 100.43,313.73C101.16,311.06 101.79,308.37 102.37,305.68C102.94,303.01 103.41,300.32 103.88,297.64C104.35,294.96 104.76,292.28 105.19,289.6C105.62,286.92 106.06,284.24 106.47,281.56C106.88,278.88 107.31,276.2 107.63,273.52C107.94,270.84 108.25,268.16 108.36,265.48C108.47,262.8 108.49,260.12 108.3,257.44C108.11,254.75 107.75,252.06 107.24,249.39C106.73,246.69 106.02,244.01 105.24,241.35C104.45,238.65 103.5,235.98 102.54,233.31C101.58,230.62 100.5,227.95 99.47,225.27C98.44,222.59 97.36,219.92 96.36,217.23C95.36,214.56 94.36,211.88 93.47,209.19C92.58,206.52 91.74,203.83 91.01,201.14C90.28,198.47 89.63,195.79 89.08,193.1C88.53,190.43 88.09,187.75 87.72,185.06Q87.35,182.39 86.84,177.02L84.91,177.02Q84.4,182.39 84.03,185.06C83.66,187.75 83.22,190.43 82.67,193.1C82.12,195.79 81.47,198.47 80.74,201.14C80.01,203.83 79.17,206.52 78.28,209.19C77.39,211.88 76.39,214.56 75.39,217.23C74.39,219.92 73.31,222.59 72.28,225.27C71.25,227.95 70.17,230.62 69.21,233.31C68.25,235.98 67.3,238.65 66.51,241.35C65.73,244.01 65.02,246.69 64.51,249.39C64,252.06 63.64,254.75 63.45,257.44C63.26,260.12 63.28,262.8 63.39,265.48C63.5,268.16 63.81,270.84 64.12,273.52C64.44,276.2 64.87,278.88 65.28,281.56C65.69,284.24 66.13,286.92 66.56,289.6C66.99,292.28 67.4,294.96 67.87,297.64C68.34,300.32 68.81,303.01 69.38,305.68C69.96,308.37 70.59,311.06 71.32,313.73C72.05,316.42 72.9,319.1 73.77,321.77C74.64,324.46 75.62,327.13 76.54,329.81C77.46,332.49 78.43,335.16 79.28,337.85C80.13,340.52 80.96,343.2 81.65,345.89C82.34,348.56 82.93,351.24 83.42,353.93Q83.91,356.6 84.59,361.98Z" style="vector-effect: non-scaling-stroke; stroke-width: 2px; stroke: rgb(255, 0, 0); stroke-opacity: 1; fill: rgb(255, 0, 0); fill-opacity: 0.5;"/><path class="violin" d="M341.78,360.81Q342.26,357.1 342.6,355.25C342.94,353.39 343.36,351.53 343.84,349.68C344.33,347.82 344.9,345.96 345.51,344.12C346.13,342.26 346.84,340.41 347.55,338.56C348.27,336.7 349.03,334.85 349.79,333C350.55,331.14 351.33,329.28 352.11,327.43C352.89,325.57 353.67,323.72 354.48,321.87C355.29,320.01 356.1,318.16 356.97,316.31C357.85,314.45 358.76,312.58 359.73,310.74C360.71,308.87 361.76,307.03 362.81,305.18C363.86,303.32 365,301.48 366.03,299.62C367.05,297.78 368.11,295.94 368.97,294.06C369.81,292.23 370.61,290.37 371.14,288.49C371.65,286.66 372.03,284.79 372.11,282.93C372.19,281.08 372.03,279.2 371.65,277.37C371.26,275.49 370.57,273.63 369.76,271.81C368.91,269.91 367.79,268.06 366.62,266.24C365.41,264.35 363.98,262.52 362.58,260.68C361.16,258.81 359.6,256.98 358.16,255.12C356.73,253.28 355.25,251.45 353.98,249.56C352.75,247.74 351.56,245.89 350.63,243.99C349.74,242.17 348.98,240.31 348.45,238.43C347.93,236.6 347.64,234.73 347.45,232.87C347.26,231.02 347.29,229.16 347.29,227.3C347.29,225.45 347.42,223.59 347.44,221.74C347.46,219.89 347.49,218.03 347.4,216.18C347.31,214.32 347.14,212.47 346.9,210.62C346.65,208.76 346.3,206.9 345.93,205.05C345.56,203.19 345.1,201.34 344.69,199.49C344.28,197.64 343.83,195.79 343.45,193.93C343.08,192.08 342.73,190.23 342.44,188.37Q342.15,186.52 341.72,182.8L340.03,182.8Q339.6,186.52 339.31,188.37C339.02,190.23 338.67,192.08 338.3,193.93C337.92,195.79 337.47,197.64 337.06,199.49C336.65,201.34 336.19,203.19 335.82,205.05C335.45,206.9 335.1,208.76 334.85,210.62C334.61,212.47 334.44,214.32 334.35,216.18C334.26,218.03 334.29,219.89 334.31,221.74C334.33,223.59 334.46,225.45 334.46,227.3C334.46,229.16 334.49,231.02 334.3,232.87C334.11,234.73 333.82,236.6 333.3,238.43C332.77,240.31 332.01,242.17 331.12,243.99C330.19,245.89 329,247.74 327.77,249.56C326.5,251.45 325.02,253.28 323.59,255.12C322.15,256.98 320.59,258.81 319.17,260.68C317.77,262.52 316.34,264.35 315.13,266.24C313.96,268.06 312.84,269.91 311.99,271.81C311.18,273.63 310.49,275.49 310.1,277.37C309.72,279.2 309.56,281.08 309.64,282.93C309.72,284.79 310.1,286.66 310.61,288.49C311.14,290.37 311.94,292.23 312.78,294.06C313.64,295.94 314.7,297.78 315.72,299.62C316.75,301.48 317.89,303.32 318.94,305.18C319.99,307.03 321.04,308.87 322.02,310.74C322.99,312.58 323.9,314.45 324.78,316.31C325.65,318.16 326.46,320.01 327.27,321.87C328.08,323.72 328.86,325.57 329.64,327.43C330.42,329.28 331.2,331.14 331.96,333C332.72,334.85 333.48,336.7 334.2,338.56C334.91,340.41 335.62,342.26 336.24,344.12C336.85,345.96 337.42,347.82 337.91,349.68C338.39,351.53 338.81,353.39 339.15,355.25Q339.49,357.1 339.97,360.81Z" style="vector-effect: non-scaling-stroke; stroke-width: 2px; stroke: rgb(255, 0, 0); stroke-opacity: 1; fill: rgb(255, 0, 0); fill-opacity: 0.5;"/><path class="meanline" d="M107.92810821533203,270.88H63.83189178466796" style="fill: none; vector-effect: non-scaling-stroke; stroke-width: 2px; stroke-dasharray: 4px, 2px; stroke: rgb(255, 0, 0); stroke-opacity: 1;"/><path class="meanline" d="M372.0470886230469,280.08H309.7129113769531" style="fill: none; vector-effect: non-scaling-stroke; stroke-width: 2px; stroke-dasharray: 4px, 2px; stroke: rgb(255, 0, 0); stroke-opacity: 1;"/><g class="points"/><g class="points"/></g><g class="trace violins" style="opacity: 1;"><path class="violin" d="M175.8,392.26Q176.14,383.11 176.36,378.54C176.58,373.96 176.85,369.38 177.14,364.81C177.43,360.23 177.77,355.66 178.09,351.09C178.41,346.52 178.77,341.94 179.06,337.37C179.35,332.8 179.63,328.23 179.82,323.65C180.01,319.08 180.15,314.5 180.2,309.92C180.25,305.35 180.21,300.77 180.14,296.2C180.07,291.63 179.9,287.05 179.79,282.48C179.68,277.91 179.5,273.33 179.47,268.76C179.44,264.18 179.42,259.6 179.59,255.03C179.76,250.45 180.04,245.88 180.49,241.31C180.94,236.73 181.57,232.15 182.3,227.59C183.03,223.01 183.97,218.44 184.89,213.87C185.82,209.29 186.89,204.72 187.85,200.14C188.8,195.57 189.81,191 190.62,186.42C191.43,181.86 192.17,177.28 192.7,172.7C193.22,168.14 193.59,163.56 193.78,158.98C193.97,154.41 193.97,149.82 193.84,145.25C193.71,140.67 193.41,136.1 193.02,131.53C192.63,126.95 192.09,122.38 191.48,117.81C190.87,113.23 190.15,108.66 189.38,104.09C188.61,99.51 187.74,94.93 186.87,90.36C186,85.78 185.06,81.21 184.18,76.64C183.3,72.07 182.38,67.5 181.57,62.92C180.76,58.35 180,53.78 179.34,49.2C178.68,44.63 178.11,40.05 177.63,35.47Q177.15,30.9 176.48,21.75L173.77,21.75Q173.1,30.9 172.62,35.47C172.14,40.05 171.57,44.63 170.91,49.2C170.25,53.78 169.49,58.35 168.68,62.92C167.87,67.5 166.95,72.07 166.07,76.64C165.19,81.21 164.25,85.78 163.38,90.36C162.51,94.93 161.64,99.51 160.87,104.09C160.1,108.66 159.38,113.23 158.77,117.81C158.16,122.38 157.62,126.95 157.23,131.53C156.84,136.1 156.54,140.67 156.41,145.25C156.28,149.82 156.28,154.41 156.47,158.98C156.66,163.56 157.03,168.14 157.55,172.7C158.08,177.28 158.82,181.86 159.63,186.42C160.44,191 161.45,195.57 162.4,200.14C163.36,204.72 164.43,209.29 165.36,213.87C166.28,218.44 167.22,223.01 167.95,227.59C168.68,232.15 169.31,236.73 169.76,241.31C170.21,245.88 170.49,250.45 170.66,255.03C170.83,259.6 170.81,264.18 170.78,268.76C170.75,273.33 170.57,277.91 170.46,282.48C170.35,287.05 170.18,291.63 170.11,296.2C170.04,300.77 170,305.35 170.05,309.92C170.1,314.5 170.24,319.08 170.43,323.65C170.62,328.23 170.9,332.8 171.19,337.37C171.48,341.94 171.84,346.52 172.16,351.09C172.48,355.66 172.82,360.23 173.11,364.81C173.4,369.38 173.67,373.96 173.89,378.54Q174.11,383.11 174.45,392.26Z" style="vector-effect: non-scaling-stroke; stroke-width: 2px; stroke: rgb(190, 190, 190); stroke-opacity: 1; fill: rgb(190, 190, 190); fill-opacity: 0.5;"/><path class="violin" d="M430.97,413.25Q431.39,408.31 431.67,405.85C431.95,403.38 432.3,400.91 432.66,398.45C433.03,395.98 433.46,393.52 433.86,391.06C434.27,388.59 434.72,386.13 435.09,383.66C435.46,381.2 435.83,378.73 436.1,376.26C436.37,373.8 436.56,371.33 436.69,368.86C436.82,366.4 436.83,363.93 436.87,361.47C436.91,359 436.85,356.54 436.93,354.07C437.01,351.6 437.06,349.13 437.33,346.67C437.6,344.2 437.97,341.71 438.57,339.27C439.18,336.78 439.99,334.31 440.95,331.88C441.93,329.38 443.17,326.92 444.43,324.48C445.72,321.99 447.21,319.54 448.62,317.08C450.04,314.61 451.56,312.17 452.92,309.68C454.26,307.23 455.59,304.78 456.7,302.28C457.78,299.84 458.77,297.38 459.51,294.89C460.23,292.45 460.79,289.97 461.1,287.49C461.4,285.04 461.5,282.55 461.36,280.09C461.22,277.62 460.84,275.13 460.25,272.69C459.65,270.2 458.77,267.73 457.76,265.3C456.72,262.8 455.41,260.34 454.05,257.9C452.66,255.4 451.05,252.96 449.5,250.5C447.94,248.02 446.24,245.58 444.7,243.1C443.18,240.65 441.63,238.2 440.31,235.7C439.03,233.27 437.82,230.81 436.87,228.31C435.94,225.88 435.18,223.4 434.65,220.91C434.12,218.46 433.83,215.98 433.67,213.51C433.51,211.05 433.59,208.57 433.71,206.11C433.83,203.64 434.14,201.18 434.42,198.72C434.7,196.25 435.09,193.79 435.37,191.32C435.65,188.86 435.96,186.39 436.12,183.92C436.28,181.46 436.39,178.99 436.36,176.52C436.33,174.06 436.19,171.59 435.97,169.13C435.75,166.66 435.4,164.19 435.05,161.73C434.7,159.26 434.25,156.8 433.85,154.33C433.45,151.86 433.02,149.4 432.65,146.93C432.29,144.47 431.94,142 431.66,139.53Q431.38,137.07 430.97,132.14L429.28,132.14Q428.87,137.07 428.59,139.53C428.31,142 427.96,144.47 427.6,146.93C427.23,149.4 426.8,151.86 426.4,154.33C426,156.8 425.55,159.26 425.2,161.73C424.85,164.19 424.5,166.66 424.28,169.13C424.06,171.59 423.92,174.06 423.89,176.52C423.86,178.99 423.97,181.46 424.13,183.92C424.29,186.39 424.6,188.86 424.88,191.32C425.16,193.79 425.55,196.25 425.83,198.72C426.11,201.18 426.42,203.64 426.54,206.11C426.66,208.57 426.74,211.05 426.58,213.51C426.42,215.98 426.13,218.46 425.6,220.91C425.07,223.4 424.31,225.88 423.38,228.31C422.43,230.81 421.22,233.27 419.94,235.7C418.62,238.2 417.07,240.65 415.55,243.1C414.01,245.58 412.31,248.02 410.75,250.5C409.2,252.96 407.59,255.4 406.2,257.9C404.84,260.34 403.53,262.8 402.49,265.3C401.48,267.73 400.6,270.2 400,272.69C399.41,275.13 399.03,277.62 398.89,280.09C398.75,282.55 398.85,285.04 399.15,287.49C399.46,289.97 400.02,292.45 400.74,294.89C401.48,297.38 402.47,299.84 403.55,302.28C404.66,304.78 405.99,307.23 407.33,309.68C408.69,312.17 410.21,314.61 411.63,317.08C413.04,319.54 414.53,321.99 415.82,324.48C417.08,326.92 418.32,329.38 419.3,331.88C420.26,334.31 421.07,336.78 421.68,339.27C422.28,341.71 422.65,344.2 422.92,346.67C423.19,349.13 423.24,351.6 423.32,354.07C423.4,356.54 423.34,359 423.38,361.47C423.42,363.93 423.43,366.4 423.56,368.86C423.69,371.33 423.88,373.8 424.15,376.26C424.42,378.73 424.79,381.2 425.16,383.66C425.53,386.13 425.98,388.59 426.39,391.06C426.79,393.52 427.22,395.98 427.59,398.45C427.95,400.91 428.3,403.38 428.58,405.85Q428.86,408.31 429.28,413.25Z" style="vector-effect: non-scaling-stroke; stroke-width: 2px; stroke: rgb(190, 190, 190); stroke-opacity: 1; fill: rgb(190, 190, 190); fill-opacity: 0.5;"/><path class="meanline" d="M192.7190704345703,172.53H157.54092956542968" style="fill: none; vector-effect: non-scaling-stroke; stroke-width: 2px; stroke-dasharray: 4px, 2px; stroke: rgb(190, 190, 190); stroke-opacity: 1;"/><path class="meanline" d="M461.3896484375,280.7H398.8703515625" style="fill: none; vector-effect: non-scaling-stroke; stroke-width: 2px; stroke-dasharray: 4px, 2px; stroke: rgb(190, 190, 190); stroke-opacity: 1;"/><g class="points"><path class="point" transform="translate(175.13,308.19)" d="M3,0A3,3 0 1,1 0,-3A3,3 0 0,1 3,0Z" style="opacity: 1; stroke-width: 0px; fill: rgb(190, 190, 190); fill-opacity: 1;"/></g><g class="points"><path class="point" transform="translate(430.13,177.13)" d="M3,0A3,3 0 1,1 0,-3A3,3 0 0,1 3,0Z" style="opacity: 1; stroke-width: 0px; fill: rgb(190, 190, 190); fill-opacity: 1;"/></g></g></g></g><g class="overplot"/><path class="xlines-above crisp" style="fill: none;" d="M0,0"/><path class="ylines-above crisp" style="fill: none; stroke-width: 2px; stroke: rgb(68, 68, 68); stroke-opacity: 1;" d="M68,25V460"/><g class="overlines-above"/><g class="xaxislayer-above"><g class="xtick"><text text-anchor="middle" x="0" y="473" transform="translate(199.5,0)" style="font-family: 'Open Sans', verdana, arial, sans-serif; font-size: 12px; fill: rgb(68, 68, 68); fill-opacity: 1; white-space: pre;">sni</text></g><g class="xtick"><text text-anchor="middle" x="0" y="473" transform="translate(454.5,0)" style="font-family: 'Open Sans', verdana, arial, sans-serif; font-size: 12px; fill: rgb(68, 68, 68); fill-opacity: 1; white-space: pre;">sham</text></g></g><g class="yaxislayer-above"><path class="ytick ticks crisp" d="M67,0h-8" transform="translate(0,446.08)" style="stroke: rgb(68, 68, 68); stroke-opacity: 1; stroke-width: 2px;"/><path class="ytick ticks crisp" d="M67,0h-8" transform="translate(0,396.7)" style="stroke: rgb(68, 68, 68); stroke-opacity: 1; stroke-width: 2px;"/><path class="ytick ticks crisp" d="M67,0h-8" transform="translate(0,347.32)" style="stroke: rgb(68, 68, 68); stroke-opacity: 1; stroke-width: 2px;"/><path class="ytick ticks crisp" d="M67,0h-8" transform="translate(0,297.94)" style="stroke: rgb(68, 68, 68); stroke-opacity: 1; stroke-width: 2px;"/><path class="ytick ticks crisp" d="M67,0h-8" transform="translate(0,248.56)" style="stroke: rgb(68, 68, 68); stroke-opacity: 1; stroke-width: 2px;"/><path class="ytick ticks crisp" d="M67,0h-8" transform="translate(0,199.18)" style="stroke: rgb(68, 68, 68); stroke-opacity: 1; stroke-width: 2px;"/><path class="ytick ticks crisp" d="M67,0h-8" transform="translate(0,149.8)" style="stroke: rgb(68, 68, 68); stroke-opacity: 1; stroke-width: 2px;"/><path class="ytick ticks crisp" d="M67,0h-8" transform="translate(0,100.42)" style="stroke: rgb(68, 68, 68); stroke-opacity: 1; stroke-width: 2px;"/><path class="ytick ticks crisp" d="M67,0h-8" transform="translate(0,51.04)" style="stroke: rgb(68, 68, 68); stroke-opacity: 1; stroke-width: 2px;"/><g class="ytick"><text text-anchor="end" x="56.6" y="4.199999999999999" transform="translate(0,446.08)" style="font-family: 'Open Sans', verdana, arial, sans-serif; font-size: 12px; fill: rgb(68, 68, 68); fill-opacity: 1; white-space: pre;">−600</text></g><g class="ytick"><text text-anchor="end" x="56.6" y="4.199999999999999" transform="translate(0,396.7)" style="font-family: 'Open Sans', verdana, arial, sans-serif; font-size: 12px; fill: rgb(68, 68, 68); fill-opacity: 1; white-space: pre;">−400</text></g><g class="ytick"><text text-anchor="end" x="56.6" y="4.199999999999999" transform="translate(0,347.32)" style="font-family: 'Open Sans', verdana, arial, sans-serif; font-size: 12px; fill: rgb(68, 68, 68); fill-opacity: 1; white-space: pre;">−200</text></g><g class="ytick"><text text-anchor="end" x="56.6" y="4.199999999999999" transform="translate(0,297.94)" style="font-family: 'Open Sans', verdana, arial, sans-serif; font-size: 12px; fill: rgb(68, 68, 68); fill-opacity: 1; white-space: pre;">0</text></g><g class="ytick"><text text-anchor="end" x="56.6" y="4.199999999999999" transform="translate(0,248.56)" style="font-family: 'Open Sans', verdana, arial, sans-serif; font-size: 12px; fill: rgb(68, 68, 68); fill-opacity: 1; white-space: pre;">200</text></g><g class="ytick"><text text-anchor="end" x="56.6" y="4.199999999999999" transform="translate(0,199.18)" style="font-family: 'Open Sans', verdana, arial, sans-serif; font-size: 12px; fill: rgb(68, 68, 68); fill-opacity: 1; white-space: pre;">400</text></g><g class="ytick"><text text-anchor="end" x="56.6" y="4.199999999999999" transform="translate(0,149.8)" style="font-family: 'Open Sans', verdana, arial, sans-serif; font-size: 12px; fill: rgb(68, 68, 68); fill-opacity: 1; white-space: pre;">600</text></g><g class="ytick"><text text-anchor="end" x="56.6" y="4.199999999999999" transform="translate(0,100.42)" style="font-family: 'Open Sans', verdana, arial, sans-serif; font-size: 12px; fill: rgb(68, 68, 68); fill-opacity: 1; white-space: pre;">800</text></g><g class="ytick"><text text-anchor="end" x="56.6" y="4.199999999999999" transform="translate(0,51.04)" style="font-family: 'Open Sans', verdana, arial, sans-serif; font-size: 12px; fill: rgb(68, 68, 68); fill-opacity: 1; white-space: pre;">1000</text></g></g><g class="overaxes-above"/></g></g><g class="polarlayer"/><g class="ternarylayer"/><g class="geolayer"/><g class="funnelarealayer"/><g class="pielayer"/><g class="treemaplayer"/><g class="sunburstlayer"/><g class="glimages"/><defs id="topdefs-139b76"><g class="clips"/><clipPath id="legend139b76"><rect width="95" height="58" x="0" y="0"/></clipPath></defs><g class="layer-above"><g class="imagelayer"/><g class="shapelayer"/></g><g class="infolayer"><g class="legend" pointer-events="all" transform="translate(595.32, 25)"><rect class="bg" shape-rendering="crispEdges" style="stroke: rgb(68, 68, 68); stroke-opacity: 1; fill: rgb(255, 255, 255); fill-opacity: 1; stroke-width: 0px;" width="95" height="58" x="0" y="0"/><g class="scrollbox" transform="translate(0, 0)" clip-path="url('#legend139b76')"><g class="groups" transform="translate(0, 0)"><g class="traces" style="opacity: 1;" transform="translate(0, 14.5)"><text class="legendtext" text-anchor="start" x="40" y="4.680000000000001" style="font-family: 'Open Sans', verdana, arial, sans-serif; font-size: 12px; fill: rgb(68, 68, 68); fill-opacity: 1; white-space: pre;">baseline</text><g class="layers" style="opacity: 1;"><g class="legendfill"/><g class="legendlines"/><g class="legendsymbols"><g class="legendpoints"><path class="legendbox" d="M6,6H-6V-6H6Z" transform="translate(20,0)" style="stroke-width: 2px; fill: rgb(255, 0, 0); fill-opacity: 0.5; stroke: rgb(255, 0, 0); stroke-opacity: 1;"/></g></g></g><rect class="legendtoggle" x="0" y="-9.5" width="89.421875" height="19" style="fill: rgb(0, 0, 0); fill-opacity: 0;"/></g></g><g class="groups" transform="translate(0, 10)"><g class="traces" style="opacity: 1;" transform="translate(0, 33.5)"><text class="legendtext" text-anchor="start" x="40" y="4.680000000000001" style="font-family: 'Open Sans', verdana, arial, sans-serif; font-size: 12px; fill: rgb(68, 68, 68); fill-opacity: 1; white-space: pre;">DAMGO</text><g class="layers" style="opacity: 1;"><g class="legendfill"/><g class="legendlines"/><g class="legendsymbols"><g class="legendpoints"><path class="legendbox" d="M6,6H-6V-6H6Z" transform="translate(20,0)" style="stroke-width: 2px; fill: rgb(190, 190, 190); fill-opacity: 0.5; stroke: rgb(190, 190, 190); stroke-opacity: 1;"/></g></g></g><rect class="legendtoggle" x="0" y="-9.5" width="89.421875" height="19" style="fill: rgb(0, 0, 0); fill-opacity: 0;"/></g></g></g><rect class="scrollbar" rx="20" ry="3" width="0" height="0" style="fill: rgb(128, 139, 164); fill-opacity: 1;" x="0" y="0"/></g><g class="g-gtitle"/><g class="g-xtitle" transform="translate(0,-15)"><text class="xtitle" x="327" y="512" text-anchor="middle" style="font-family: 'Open Sans', verdana, arial, sans-serif; font-size: 14px; fill: rgb(68, 68, 68); opacity: 1; font-weight: normal; white-space: pre;">Group</text></g><g class="g-ytitle" transform="translate(-1.296875,0)"><text class="ytitle" transform="rotate(-90,30,242.5)" x="30" y="242.5" text-anchor="middle" style="font-family: 'Open Sans', verdana, arial, sans-serif; font-size: 14px; fill: rgb(68, 68, 68); opacity: 1; font-weight: normal; white-space: pre;">Measurement</text></g></g></svg>